<svg width="16" height="15" viewBox="0 0 16 15" fill="none" xmlns="http://www.w3.org/2000/svg">
<path d="M0 5.09164C0 8.35354 2.73356 11.5618 7.05213 14.3184C7.21293 14.4179 7.44264 14.5251 7.60344 14.5251C7.76423 14.5251 7.99393 14.4179 8.16243 14.3184C12.4733 11.5618 15.2068 8.35354 15.2068 5.09164C15.2068 2.38106 13.3462 0.466797 10.8653 0.466797C9.44879 0.466797 8.30019 1.14062 7.60344 2.17432C6.92195 1.14827 5.75809 0.466797 4.34154 0.466797C1.86066 0.466797 0 2.38106 0 5.09164ZM1.23279 5.09164C1.23279 3.05487 2.54979 1.69958 4.32623 1.69958C5.76575 1.69958 6.5927 2.59545 7.08275 3.36116C7.2895 3.66743 7.41966 3.75167 7.60344 3.75167C7.7872 3.75167 7.90204 3.65978 8.12409 3.36116C8.65248 2.61077 9.44879 1.69958 10.8807 1.69958C12.6571 1.69958 13.9741 3.05487 13.9741 5.09164C13.9741 7.9401 10.9649 11.0106 7.76423 13.1392C7.68766 13.1928 7.63406 13.2311 7.60344 13.2311C7.5728 13.2311 7.5192 13.1928 7.45029 13.1392C4.242 11.0106 1.23279 7.9401 1.23279 5.09164Z" fill="#6E6E6E"/>
</svg>
