<svg width="8" height="8" viewBox="0 0 8 8" fill="none" xmlns="http://www.w3.org/2000/svg">
<path d="M2.96364 8.00008C3.15909 8.00008 3.31364 7.91398 3.42273 7.74629L7.71817 1.00178C7.79999 0.870338 7.83183 0.770623 7.83183 0.666373C7.83183 0.41708 7.66818 0.253906 7.41818 0.253906C7.23638 0.253906 7.13635 0.31283 7.02729 0.485067L2.94545 6.97118L0.827271 4.20632C0.713635 4.04768 0.599999 3.98422 0.436364 3.98422C0.177273 3.98422 0 4.16099 0 4.41029C0 4.51454 0.0454545 4.63238 0.131818 4.74115L2.49091 7.7372C2.62727 7.91398 2.76818 8.00008 2.96364 8.00008Z" fill="black"/>
</svg>
