<svg width="37" height="35" viewBox="0 0 37 35" fill="none" xmlns="http://www.w3.org/2000/svg">
<path d="M9.27368 20.9418C9.27368 18.3809 11.3497 16.3049 13.9106 16.3049H17.2226C23.0761 16.3049 27.8212 21.0501 27.8212 26.9035V28.6699C27.8212 32.0845 25.0532 34.8525 21.6387 34.8525C14.8097 34.8525 9.27368 29.3164 9.27368 22.4874V20.9418Z" fill="#FF6767" fill-opacity="0.8"/>
<path d="M14.917 23.9317C12.8246 22.4552 12.3253 19.5621 13.8018 17.4697L15.7114 14.7635C19.0862 9.98089 25.6991 8.83962 30.4817 12.2144L31.925 13.2328C34.7148 15.2015 35.3806 19.059 33.4119 21.8489C29.4747 27.4286 21.7596 28.7601 16.1799 24.8228L14.917 23.9317Z" fill="#9E92D2"/>
<path d="M17.8304 21.6896C15.3709 22.4032 12.7986 20.9881 12.0849 18.5286L11.1619 15.3478C9.5306 9.72627 12.7653 3.8467 18.3868 2.2154L20.0833 1.72311C23.3625 0.771515 26.7923 2.65843 27.7439 5.93766C29.6471 12.4961 25.8732 19.3556 19.3148 21.2588L17.8304 21.6896Z" fill="#D5F1F7"/>
<path d="M0 10.7406C0 8.17976 2.076 6.10376 4.63688 6.10376H7.94894C13.8024 6.10376 18.5475 10.8489 18.5475 16.7023V18.4688C18.5475 21.8833 15.7795 24.6513 12.365 24.6513C5.53601 24.6513 0 19.1153 0 12.2863V10.7406Z" fill="#FFDCE0"/>
<path d="M14.8133 15.6546C17.3696 15.5016 19.5659 17.4499 19.7189 20.0062L19.9168 23.3123C20.2665 29.1553 15.8133 34.1755 9.97035 34.5252L8.20707 34.6307C4.79866 34.8347 1.87024 32.237 1.66624 28.8286C1.25824 22.0118 6.45362 16.1549 13.2704 15.7469L14.8133 15.6546Z" fill="#FFF4C1"/>
</svg>
