<svg width="150" height="136" viewBox="0 0 150 136" fill="none" xmlns="http://www.w3.org/2000/svg">
<g filter="url(#filter0_d_446_451)">
<path d="M133.782 0H16.2183C7.26117 0 0 7.24548 0 16.1832V87.1464C0 96.0841 7.26117 103.33 16.2183 103.33H133.782C142.739 103.33 150 96.0841 150 87.1464V16.1832C150 7.24548 142.739 0 133.782 0Z" fill="#C9CCD0"/>
<path d="M96.7005 125.363H53.2995L61.6751 103.33H89.0863L96.7005 125.363Z" fill="#C9CCD0"/>
<path d="M107.36 126.883H42.6396C40.1165 126.883 38.0711 128.924 38.0711 131.441C38.0711 133.959 40.1165 136 42.6396 136H107.36C109.884 136 111.929 133.959 111.929 131.441C111.929 128.924 109.884 126.883 107.36 126.883Z" fill="#C9CCD0"/>
<path d="M132.701 14.4358H17.2995C14.4736 14.4358 12.1827 16.7217 12.1827 19.5415V85.3077C12.1827 88.1275 14.4736 90.4134 17.2995 90.4134H132.701C135.526 90.4134 137.817 88.1275 137.817 85.3077V19.5415C137.817 16.7217 135.526 14.4358 132.701 14.4358Z" fill="#F8F9FA"/>
<path d="M72.1142 32.1766L51.1523 68.4104C49.8731 70.6289 51.4721 73.4021 54.0381 73.4021H95.9695C98.5355 73.4021 100.142 70.6289 98.8553 68.4104L77.8934 32.1766C76.6142 29.9581 73.401 29.9581 72.1218 32.1766H72.1142Z" fill="#868E96"/>
<path d="M75 66.8604C76.2616 66.8604 77.2843 65.8399 77.2843 64.5811C77.2843 63.3222 76.2616 62.3018 75 62.3018C73.7384 62.3018 72.7157 63.3222 72.7157 64.5811C72.7157 65.8399 73.7384 66.8604 75 66.8604Z" fill="#F8F9FA"/>
<path d="M75.5025 58.9054L78.3731 48.1698C78.967 45.9588 77.2919 43.7859 75 43.7859C72.7081 43.7859 71.033 45.9588 71.6269 48.1698L74.4975 58.9054C74.6345 59.4221 75.3655 59.4221 75.5025 58.9054Z" fill="#F8F9FA"/>
</g>
<defs>
<filter id="filter0_d_446_451" x="-4" y="0" width="158" height="144" filterUnits="userSpaceOnUse" color-interpolation-filters="sRGB">
<feFlood flood-opacity="0" result="BackgroundImageFix"/>
<feColorMatrix in="SourceAlpha" type="matrix" values="0 0 0 0 0 0 0 0 0 0 0 0 0 0 0 0 0 0 127 0" result="hardAlpha"/>
<feOffset dy="4"/>
<feGaussianBlur stdDeviation="2"/>
<feComposite in2="hardAlpha" operator="out"/>
<feColorMatrix type="matrix" values="0 0 0 0 0 0 0 0 0 0 0 0 0 0 0 0 0 0 0.25 0"/>
<feBlend mode="normal" in2="BackgroundImageFix" result="effect1_dropShadow_446_451"/>
<feBlend mode="normal" in="SourceGraphic" in2="effect1_dropShadow_446_451" result="shape"/>
</filter>
</defs>
</svg>
