<svg width="119" height="136" viewBox="0 0 119 136" fill="none" xmlns="http://www.w3.org/2000/svg">
<g clip-path="url(#clip0_1534_3786)">
<path d="M89.338 81.3171L99.7028 91.6505V16.6871C99.7028 6.6748 92.6862 0 82.1928 0H34.4896C26.8288 0 21.0993 3.33741 18.975 9.49879L18.5243 10.654L27.3439 19.4468V18.2274C27.3439 13.093 30.3695 10.3332 35.7772 10.3332H80.8407C86.2483 10.3332 89.338 13.2213 89.338 18.3558V81.3171ZM50.5837 24.453H66.1627C68.6736 24.453 70.6691 22.4634 70.6691 19.8961C70.6691 17.393 68.6736 15.4035 66.1627 15.4035H50.5837C48.0087 15.4035 45.9486 17.393 45.9486 19.8961C45.9486 22.4634 48.0087 24.453 50.5837 24.453ZM34.4896 135.871H82.1928C89.5958 135.871 95.0033 132.598 97.4496 126.758C97.5782 126.437 97.7713 125.987 97.9005 125.667L89.338 116.874C89.338 117.323 89.338 117.708 89.338 118.094C89.0809 122.907 85.9905 125.538 80.8407 125.538H35.7772C30.3695 125.538 27.3439 122.65 27.3439 117.516V55.2599L16.9792 44.9268V119.185C16.9792 129.197 23.9963 135.871 34.4896 135.871ZM44.6611 120.853H72.0211C73.7595 120.853 75.0469 119.633 75.0469 117.837C75.0469 116.039 73.7595 114.884 72.0211 114.884H44.6611C42.9229 114.884 41.6998 116.039 41.6998 117.837C41.6998 119.633 42.9229 120.853 44.6611 120.853Z" fill="#C9CCD0"/>
<path d="M108.136 124.896C110.068 126.886 113.287 126.822 115.153 124.896C117.084 123.035 117.084 119.89 115.153 117.901L8.48158 11.6167C6.5503 9.69125 3.39586 9.62704 1.40018 11.6167C-0.466728 13.4779 -0.466728 16.7512 1.40018 18.6124L108.136 124.896Z" fill="#868E96"/>
</g>
<defs>
<clipPath id="clip0_1534_3786">
<rect width="119" height="136" fill="white"/>
</clipPath>
</defs>
</svg>
