<svg width="93" height="88" viewBox="0 0 93 88" fill="none" xmlns="http://www.w3.org/2000/svg">
<g filter="url(#filter0_d_1472_1760)">
<path d="M47.4105 50.0547C44.9048 50.0547 48.9 50.0547 47.4105 50.0547C50.8205 46.9069 56.1424 41.9943 56.1424 41.9943C59.4717 42.4323 62.9762 41.0598 66.0426 37.9934L49.9805 21.902C46.8848 24.9684 45.5997 28.4145 46.0672 31.7729L18.9075 61.0061C17.7977 62.2035 17.6225 63.868 18.9951 65.2406L15.257 70.0592C14.9066 70.5266 14.8774 71.1982 15.403 71.724L16.2499 72.5999C16.7464 73.0963 17.4181 73.1256 17.9438 72.7168L22.7624 68.9494C24.0766 70.322 25.7704 70.1468 26.9385 69.037C26.9385 69.037 39.4157 57.4677 47.4105 50.0547C45.9211 50.0547 50.2199 50.0547 47.4105 50.0547ZM21.9155 63.4006L47.6733 36.0659C48.1698 36.9128 48.7538 37.7013 49.4841 38.4898C50.1847 39.2199 51.0026 39.8916 51.7619 40.3589L24.6022 66.0875L21.9155 63.4006ZM52.9007 18.9524L68.9922 35.0438C74.1319 29.9623 74.3364 23.4498 69.401 18.5436C64.4948 13.6957 58.0407 13.8125 52.9007 18.9524Z" fill="white" fill-opacity="0.85"/>
<path d="M25.3273 41.9066C25.606 41.9066 25.832 41.6992 25.8772 41.392C26.525 36.2774 27.2331 35.5478 32.1368 34.9948C32.4456 34.9642 32.6641 34.7338 32.6641 34.4343C32.6641 34.1347 32.4456 33.9044 32.1368 33.866C27.2331 33.3207 26.525 32.5911 25.8772 27.4688C25.832 27.1616 25.606 26.9619 25.3273 26.9619C25.0486 26.9619 24.8226 27.1616 24.7774 27.4688C24.1296 32.5911 23.4215 33.3207 18.5178 33.866C18.2089 33.9044 17.9905 34.1347 17.9905 34.4343C17.9905 34.7338 18.2089 34.9642 18.5178 34.9948C23.4215 35.6553 24.0844 36.2851 24.7774 41.392C24.8226 41.6992 25.0486 41.9066 25.3273 41.9066Z" fill="white" fill-opacity="0.85"/>
<path d="M68.6611 59.8477C68.9956 59.8477 69.2667 59.5988 69.321 59.2302C70.0984 53.0926 70.948 52.2172 76.8325 51.5536C77.2031 51.5168 77.4653 51.2403 77.4653 50.8809C77.4653 50.5215 77.2031 50.245 76.8325 50.1989C70.948 49.5446 70.0984 48.6691 69.321 42.5223C69.2667 42.1537 68.9956 41.9141 68.6611 41.9141C68.3267 41.9141 68.0555 42.1537 68.0013 42.5223C67.2239 48.6691 66.3742 49.5446 60.4897 50.1989C60.1191 50.245 59.8569 50.5215 59.8569 50.8809C59.8569 51.2403 60.1191 51.5168 60.4897 51.5536C66.3742 52.3462 67.1697 53.1019 68.0013 59.2302C68.0555 59.5988 68.3267 59.8477 68.6611 59.8477Z" fill="white" fill-opacity="0.85"/>
<path d="M46.3166 71.8145C46.4839 71.8145 46.6195 71.69 46.6466 71.5057C47.0353 68.4369 47.4601 67.9992 50.4023 67.6674C50.5877 67.649 50.7187 67.5108 50.7187 67.3311C50.7187 67.1514 50.5877 67.0131 50.4023 66.9901C47.4601 66.6629 47.0353 66.2252 46.6466 63.1518C46.6195 62.9675 46.4839 62.8477 46.3166 62.8477C46.1494 62.8477 46.0138 62.9675 45.9867 63.1518C45.598 66.2252 45.1732 66.6629 42.2309 66.9901C42.0456 67.0131 41.9146 67.1514 41.9146 67.3311C41.9146 67.5108 42.0456 67.649 42.2309 67.6674C45.1732 68.0637 45.5709 68.4416 45.9867 71.5057C46.0138 71.69 46.1494 71.8145 46.3166 71.8145Z" fill="white" fill-opacity="0.85"/>
</g>
<defs>
<filter id="filter0_d_1472_1760" x="0" y="0" width="92.4653" height="88" filterUnits="userSpaceOnUse" color-interpolation-filters="sRGB">
<feFlood flood-opacity="0" result="BackgroundImageFix"/>
<feColorMatrix in="SourceAlpha" type="matrix" values="0 0 0 0 0 0 0 0 0 0 0 0 0 0 0 0 0 0 127 0" result="hardAlpha"/>
<feOffset/>
<feGaussianBlur stdDeviation="7.5"/>
<feComposite in2="hardAlpha" operator="out"/>
<feColorMatrix type="matrix" values="0 0 0 0 1 0 0 0 0 1 0 0 0 0 1 0 0 0 0.7 0"/>
<feBlend mode="normal" in2="BackgroundImageFix" result="effect1_dropShadow_1472_1760"/>
<feBlend mode="normal" in="SourceGraphic" in2="effect1_dropShadow_1472_1760" result="shape"/>
</filter>
</defs>
</svg>
