<svg width="10" height="16" viewBox="0 0 10 16" fill="none" xmlns="http://www.w3.org/2000/svg">
<g clip-path="url(#clip0_1214_7835)">
<path d="M9.49879 3.90068V0.973189C9.49879 0.56054 9.16394 0.295821 8.7669 0.373679L4.76495 1.2457C4.26666 1.3547 3.99416 1.62721 3.99416 2.06321L4.00973 10.7211C4.04865 11.1026 3.86958 11.3518 3.527 11.4219L2.28904 11.6787C0.731872 12.0058 0 12.7999 0 13.9756C0 15.1668 0.91873 16 2.21119 16C3.35571 16 5.0686 15.1591 5.0686 12.8934V5.76929C5.0686 5.35664 5.14646 5.27099 5.5124 5.19313L9.07058 4.41455C9.33527 4.36005 9.49879 4.15761 9.49879 3.90068Z" fill="white"/>
</g>
<defs>
<clipPath id="clip0_1214_7835">
<rect width="9.78685" height="16" fill="white"/>
</clipPath>
</defs>
</svg>
