<svg width="91" height="89" viewBox="0 0 91 89" fill="none" xmlns="http://www.w3.org/2000/svg">
<g clip-path="url(#clip0_1214_1240)">
<path d="M89.379 44.5219C89.379 68.854 69.1374 89 44.6895 89C20.2855 89 0 68.854 0 44.5219C0 20.2333 20.2417 0.0436096 44.6456 0.0436096C69.0935 0.0436096 89.379 20.2333 89.379 44.5219ZM21.3808 64.537C21.3808 66.1941 22.2133 67.3716 24.0535 67.3716H65.3253C67.1656 67.3716 67.9979 66.1941 67.9979 64.537C67.9979 59.6533 60.5499 46.8764 44.6895 46.8764C28.8291 46.8764 21.3808 59.6533 21.3808 64.537ZM33.079 30.5243C33.079 37.7629 38.2928 43.1265 44.6895 43.1701C51.0861 43.2137 56.2998 37.7629 56.2998 30.5243C56.2998 23.809 51.0861 18.2274 44.6895 18.2274C38.2928 18.2274 33.079 23.809 33.079 30.5243Z" fill="#3D96FF" fill-opacity="0.85"/>
</g>
<defs>
<clipPath id="clip0_1214_1240">
<rect width="91" height="89" fill="white"/>
</clipPath>
</defs>
</svg>
