<svg width="17" height="16" viewBox="0 0 17 16" fill="none" xmlns="http://www.w3.org/2000/svg">
<g clip-path="url(#clip0_1214_7816)">
<path d="M12.9649 14.2928C12.9112 14.2977 12.8548 14.2998 12.7966 14.2998H3.39438C2.64416 14.2998 2.19543 13.9492 2.19543 13.3673C2.19543 11.6177 4.31393 9.22538 7.74935 9.07726L12.9649 14.2928ZM10.9036 4.70825C10.9036 5.6962 10.4915 6.55497 9.86182 7.11613L5.77472 3.02901C6.28637 2.21376 7.15373 1.69336 8.099 1.69336C9.59947 1.69336 10.9036 2.97644 10.9036 4.70825Z" fill="white"/>
<path d="M14.6336 14.6924C14.844 14.9027 15.1945 14.8957 15.3978 14.6853C15.6082 14.468 15.6082 14.1314 15.3978 13.9211L2.53899 1.05522C2.32865 0.844875 1.97808 0.844875 1.76774 1.05522C1.5574 1.25855 1.5574 1.61613 1.76774 1.81946L14.6336 14.6924Z" fill="white"/>
</g>
<defs>
<clipPath id="clip0_1214_7816">
<rect width="16.4505" height="16" fill="white"/>
</clipPath>
</defs>
</svg>
