<svg width="92" height="66" viewBox="0 0 92 66" fill="none" xmlns="http://www.w3.org/2000/svg">
<g clip-path="url(#clip0_36_7)">
<path d="M76.9332 16.8374V32.0191C76.2453 31.9191 75.5405 31.8746 74.8265 31.8746C74.0845 31.8746 73.3533 31.9223 72.64 32.0305V17.0756C72.64 14.3223 71.1466 12.8927 68.5066 12.8927H22.4799C19.8132 12.8927 18.3466 14.3223 18.3466 17.0756V46.3048L26.2932 39.1815C27.3866 38.1754 28.5332 37.6988 29.7333 37.6988C30.9867 37.6988 32.2133 38.202 33.3332 39.208L38.2667 43.6293L50.3198 32.9335C51.5467 31.8481 52.8533 31.3452 54.32 31.3452C55.7598 31.3452 57.1732 31.9012 58.3466 32.9867L62.6193 36.9715C59.5375 40.0601 57.6265 44.3 57.6265 48.9504C57.6265 52.0091 58.4501 54.8871 59.9006 57.3692H22.4266C16.8532 57.3692 14.0532 54.6423 14.0532 49.1887V16.8374C14.0532 11.3837 16.8532 8.63037 22.4266 8.63037H68.5599C74.1599 8.63037 76.9332 11.3837 76.9332 16.8374ZM40.1866 27.0034C40.1866 30.4452 37.3598 33.2513 33.92 33.2513C30.4531 33.2513 27.6266 30.4452 27.6266 27.0034C27.6266 23.5883 30.4531 20.7555 33.92 20.7555C37.3598 20.7555 40.1866 23.5883 40.1866 27.0034Z" fill="black" fill-opacity="0.85"/>
<path d="M88.3732 48.9507C88.3732 56.2841 82.1598 62.3997 74.8264 62.3997C67.3864 62.3997 61.2798 56.337 61.2798 48.9507C61.2798 41.5645 67.3864 35.502 74.8264 35.502C82.2398 35.502 88.3732 41.5645 88.3732 48.9507ZM73.1732 42.147V47.3095H67.9732C66.9863 47.3095 66.3465 47.9447 66.3465 48.9507C66.3465 49.9304 66.9863 50.5656 67.9732 50.5656H73.1732V55.7281C73.1732 56.7078 73.813 57.3696 74.8264 57.3696C75.8132 57.3696 76.453 56.7078 76.453 55.7281V50.5656H81.653C82.6399 50.5656 83.3064 49.9304 83.3064 48.9507C83.3064 47.9447 82.6399 47.3095 81.653 47.3095H76.453V42.147C76.453 41.1939 75.8132 40.5321 74.8264 40.5321C73.813 40.5321 73.1732 41.1939 73.1732 42.147Z" fill="black" fill-opacity="0.85"/>
</g>
<defs>
<clipPath id="clip0_36_7">
<rect width="92" height="66" fill="white"/>
</clipPath>
</defs>
</svg>
